<?xml version="1.0" encoding="UTF-8" standalone="no"?>
<!DOCTYPE svg PUBLIC "-//W3C//DTD SVG 1.1//EN"
 "http://www.w3.org/Graphics/SVG/1.1/DTD/svg11.dtd">
<!-- Generated by graphviz version 2.47.3 (20210619.1520)
 -->
<!-- Title: dependencies Pages: 1 -->
<svg width="1429pt" height="247pt"
 viewBox="0.00 0.00 1429.00 246.80" xmlns="http://www.w3.org/2000/svg" xmlns:xlink="http://www.w3.org/1999/xlink">
<g id="graph0" class="graph" transform="scale(1 1) rotate(0) translate(4 242.8)">
<title>dependencies</title>
<polygon fill="white" stroke="transparent" points="-4,4 -4,-242.8 1425,-242.8 1425,4 -4,4"/>
<text text-anchor="middle" x="710.5" y="-8.2" font-family="sans-serif" font-size="14.00">dependencies</text>
<g id="clust1" class="cluster">
<title>cluster_AppModule</title>
<polygon fill="none" stroke="black" stroke-dasharray="1,5" points="8,-32.8 8,-230.8 1413,-230.8 1413,-32.8 8,-32.8"/>
</g>
<g id="clust7" class="cluster">
<title>cluster_AppModule_bootstrap</title>
<polygon fill="none" stroke="black" points="635,-170.8 635,-222.8 759,-222.8 759,-170.8 635,-170.8"/>
</g>
<g id="clust2" class="cluster">
<title>cluster_AppModule_declarations</title>
<polygon fill="none" stroke="black" points="1092,-40.8 1092,-92.8 1405,-92.8 1405,-40.8 1092,-40.8"/>
</g>
<g id="clust5" class="cluster">
<title>cluster_AppModule_imports</title>
<polygon fill="none" stroke="black" points="16,-40.8 16,-92.8 1084,-92.8 1084,-40.8 16,-40.8"/>
</g>
<!-- AppComponent -->
<g id="node1" class="node">
<title>AppComponent</title>
<polygon fill="#ffffb3" stroke="black" points="1396.94,-84.8 1291.06,-84.8 1291.06,-48.8 1396.94,-48.8 1396.94,-84.8"/>
<text text-anchor="middle" x="1344" y="-62.6" font-family="Times,serif" font-size="14.00">AppComponent</text>
</g>
<!-- AppModule -->
<g id="node3" class="node">
<title>AppModule</title>
<polygon fill="#8dd3c7" stroke="black" points="738.66,-149.8 735.66,-153.8 714.66,-153.8 711.66,-149.8 655.34,-149.8 655.34,-113.8 738.66,-113.8 738.66,-149.8"/>
<text text-anchor="middle" x="697" y="-127.6" font-family="Times,serif" font-size="14.00">AppModule</text>
</g>
<!-- AppComponent&#45;&gt;AppModule -->
<g id="edge1" class="edge">
<title>AppComponent&#45;&gt;AppModule</title>
<path fill="none" stroke="black" d="M1344,-84.81C1344,-107.29 1344,-142.8 1344,-142.8 1344,-142.8 748.95,-142.8 748.95,-142.8"/>
<polygon fill="black" stroke="black" points="748.95,-139.3 738.95,-142.8 748.95,-146.3 748.95,-139.3"/>
</g>
<!-- NavigationMainComponent -->
<g id="node2" class="node">
<title>NavigationMainComponent</title>
<polygon fill="#ffffb3" stroke="black" points="1273.59,-84.8 1100.41,-84.8 1100.41,-48.8 1273.59,-48.8 1273.59,-84.8"/>
<text text-anchor="middle" x="1187" y="-62.6" font-family="Times,serif" font-size="14.00">NavigationMainComponent</text>
</g>
<!-- NavigationMainComponent&#45;&gt;AppModule -->
<g id="edge2" class="edge">
<title>NavigationMainComponent&#45;&gt;AppModule</title>
<path fill="none" stroke="black" d="M1187,-84.93C1187,-105.37 1187,-135.8 1187,-135.8 1187,-135.8 748.78,-135.8 748.78,-135.8"/>
<polygon fill="black" stroke="black" points="748.78,-132.3 738.78,-135.8 748.78,-139.3 748.78,-132.3"/>
</g>
<!-- AppComponent  -->
<g id="node12" class="node">
<title>AppComponent </title>
<polygon fill="#80b1d3" stroke="black" points="751.44,-214.8 642.56,-214.8 642.56,-178.8 751.44,-178.8 751.44,-214.8"/>
<text text-anchor="middle" x="697" y="-192.6" font-family="Times,serif" font-size="14.00">AppComponent </text>
</g>
<!-- AppModule&#45;&gt;AppComponent  -->
<g id="edge11" class="edge">
<title>AppModule&#45;&gt;AppComponent </title>
<path fill="none" stroke="black" stroke-dasharray="1,5" d="M697,-149.91C697,-149.91 697,-168.79 697,-168.79"/>
<polygon fill="black" stroke="black" points="693.5,-168.79 697,-178.79 700.5,-168.79 693.5,-168.79"/>
</g>
<!-- AppRoutingModule -->
<g id="node4" class="node">
<title>AppRoutingModule</title>
<polygon fill="#8dd3c7" stroke="black" points="1076.27,-84.8 1073.27,-88.8 1052.27,-88.8 1049.27,-84.8 947.73,-84.8 947.73,-48.8 1076.27,-48.8 1076.27,-84.8"/>
<text text-anchor="middle" x="1012" y="-62.6" font-family="Times,serif" font-size="14.00">AppRoutingModule</text>
</g>
<!-- AppRoutingModule&#45;&gt;AppModule -->
<g id="edge3" class="edge">
<title>AppRoutingModule&#45;&gt;AppModule</title>
<path fill="none" stroke="black" d="M1012,-85.07C1012,-103.36 1012,-128.8 1012,-128.8 1012,-128.8 748.83,-128.8 748.83,-128.8"/>
<polygon fill="black" stroke="black" points="748.83,-125.3 738.83,-128.8 748.83,-132.3 748.83,-125.3"/>
</g>
<!-- CoreModule -->
<g id="node5" class="node">
<title>CoreModule</title>
<polygon fill="#8dd3c7" stroke="black" points="929.26,-84.8 926.26,-88.8 905.26,-88.8 902.26,-84.8 842.74,-84.8 842.74,-48.8 929.26,-48.8 929.26,-84.8"/>
<text text-anchor="middle" x="886" y="-62.6" font-family="Times,serif" font-size="14.00">CoreModule</text>
</g>
<!-- CoreModule&#45;&gt;AppModule -->
<g id="edge4" class="edge">
<title>CoreModule&#45;&gt;AppModule</title>
<path fill="none" stroke="black" d="M886,-84.81C886,-100.85 886,-121.8 886,-121.8 886,-121.8 748.95,-121.8 748.95,-121.8"/>
<polygon fill="black" stroke="black" points="748.95,-118.3 738.95,-121.8 748.95,-125.3 748.95,-118.3"/>
</g>
<!-- CustomerModule -->
<g id="node6" class="node">
<title>CustomerModule</title>
<polygon fill="#8dd3c7" stroke="black" points="824.99,-84.8 821.99,-88.8 800.99,-88.8 797.99,-84.8 711.01,-84.8 711.01,-48.8 824.99,-48.8 824.99,-84.8"/>
<text text-anchor="middle" x="768" y="-62.6" font-family="Times,serif" font-size="14.00">CustomerModule</text>
</g>
<!-- CustomerModule&#45;&gt;AppModule -->
<g id="edge5" class="edge">
<title>CustomerModule&#45;&gt;AppModule</title>
<path fill="none" stroke="black" d="M724.92,-84.91C724.92,-84.91 724.92,-103.79 724.92,-103.79"/>
<polygon fill="black" stroke="black" points="721.42,-103.79 724.92,-113.79 728.42,-103.79 721.42,-103.79"/>
</g>
<!-- DefaultPagesModule -->
<g id="node7" class="node">
<title>DefaultPagesModule</title>
<polygon fill="#8dd3c7" stroke="black" points="693.18,-84.8 690.18,-88.8 669.18,-88.8 666.18,-84.8 558.82,-84.8 558.82,-48.8 693.18,-48.8 693.18,-84.8"/>
<text text-anchor="middle" x="626" y="-62.6" font-family="Times,serif" font-size="14.00">DefaultPagesModule</text>
</g>
<!-- DefaultPagesModule&#45;&gt;AppModule -->
<g id="edge6" class="edge">
<title>DefaultPagesModule&#45;&gt;AppModule</title>
<path fill="none" stroke="black" d="M674.13,-84.91C674.13,-84.91 674.13,-103.79 674.13,-103.79"/>
<polygon fill="black" stroke="black" points="670.63,-103.79 674.13,-113.79 677.63,-103.79 670.63,-103.79"/>
</g>
<!-- LegalModule -->
<g id="node8" class="node">
<title>LegalModule</title>
<polygon fill="#8dd3c7" stroke="black" points="540.92,-84.8 537.92,-88.8 516.92,-88.8 513.92,-84.8 449.08,-84.8 449.08,-48.8 540.92,-48.8 540.92,-84.8"/>
<text text-anchor="middle" x="495" y="-62.6" font-family="Times,serif" font-size="14.00">LegalModule</text>
</g>
<!-- LegalModule&#45;&gt;AppModule -->
<g id="edge7" class="edge">
<title>LegalModule&#45;&gt;AppModule</title>
<path fill="none" stroke="black" d="M495,-84.81C495,-100.85 495,-121.8 495,-121.8 495,-121.8 645.15,-121.8 645.15,-121.8"/>
<polygon fill="black" stroke="black" points="645.15,-125.3 655.15,-121.8 645.15,-118.3 645.15,-125.3"/>
</g>
<!-- MaterialModule -->
<g id="node9" class="node">
<title>MaterialModule</title>
<polygon fill="#8dd3c7" stroke="black" points="431.47,-84.8 428.47,-88.8 407.47,-88.8 404.47,-84.8 324.53,-84.8 324.53,-48.8 431.47,-48.8 431.47,-84.8"/>
<text text-anchor="middle" x="378" y="-62.6" font-family="Times,serif" font-size="14.00">MaterialModule</text>
</g>
<!-- MaterialModule&#45;&gt;AppModule -->
<g id="edge8" class="edge">
<title>MaterialModule&#45;&gt;AppModule</title>
<path fill="none" stroke="black" d="M378,-85.07C378,-103.36 378,-128.8 378,-128.8 378,-128.8 645.3,-128.8 645.3,-128.8"/>
<polygon fill="black" stroke="black" points="645.3,-132.3 655.3,-128.8 645.3,-125.3 645.3,-132.3"/>
</g>
<!-- StartPageModule -->
<g id="node10" class="node">
<title>StartPageModule</title>
<polygon fill="#8dd3c7" stroke="black" points="306.7,-84.8 303.7,-88.8 282.7,-88.8 279.7,-84.8 193.3,-84.8 193.3,-48.8 306.7,-48.8 306.7,-84.8"/>
<text text-anchor="middle" x="250" y="-62.6" font-family="Times,serif" font-size="14.00">StartPageModule</text>
</g>
<!-- StartPageModule&#45;&gt;AppModule -->
<g id="edge9" class="edge">
<title>StartPageModule&#45;&gt;AppModule</title>
<path fill="none" stroke="black" d="M250,-84.93C250,-105.37 250,-135.8 250,-135.8 250,-135.8 644.95,-135.8 644.95,-135.8"/>
<polygon fill="black" stroke="black" points="644.95,-139.3 654.95,-135.8 644.95,-132.3 644.95,-139.3"/>
</g>
<!-- TemplateSyntaxModule -->
<g id="node11" class="node">
<title>TemplateSyntaxModule</title>
<polygon fill="#8dd3c7" stroke="black" points="175.81,-84.8 172.81,-88.8 151.81,-88.8 148.81,-84.8 24.19,-84.8 24.19,-48.8 175.81,-48.8 175.81,-84.8"/>
<text text-anchor="middle" x="100" y="-62.6" font-family="Times,serif" font-size="14.00">TemplateSyntaxModule</text>
</g>
<!-- TemplateSyntaxModule&#45;&gt;AppModule -->
<g id="edge10" class="edge">
<title>TemplateSyntaxModule&#45;&gt;AppModule</title>
<path fill="none" stroke="black" d="M100,-84.81C100,-107.29 100,-142.8 100,-142.8 100,-142.8 645.02,-142.8 645.02,-142.8"/>
<polygon fill="black" stroke="black" points="645.02,-146.3 655.02,-142.8 645.02,-139.3 645.02,-146.3"/>
</g>
</g>
</svg>
