<?xml version="1.0" encoding="UTF-8" standalone="no"?>
<!DOCTYPE svg PUBLIC "-//W3C//DTD SVG 1.1//EN"
 "http://www.w3.org/Graphics/SVG/1.1/DTD/svg11.dtd">
<!-- Generated by graphviz version 2.47.3 (20210619.1520)
 -->
<!-- Title: dependencies Pages: 1 -->
<svg width="613pt" height="174pt"
 viewBox="0.00 0.00 613.00 173.80" xmlns="http://www.w3.org/2000/svg" xmlns:xlink="http://www.w3.org/1999/xlink">
<g id="graph0" class="graph" transform="scale(1 1) rotate(0) translate(4 169.8)">
<title>dependencies</title>
<polygon fill="white" stroke="transparent" points="-4,4 -4,-169.8 609,-169.8 609,4 -4,4"/>
<text text-anchor="middle" x="302.5" y="-8.2" font-family="sans-serif" font-size="14.00">dependencies</text>
<g id="clust1" class="cluster">
<title>cluster_TemplateSyntaxModule</title>
<polygon fill="none" stroke="black" stroke-dasharray="1,5" points="8,-32.8 8,-157.8 597,-157.8 597,-32.8 8,-32.8"/>
</g>
<g id="clust5" class="cluster">
<title>cluster_TemplateSyntaxModule_imports</title>
<polygon fill="none" stroke="black" points="362,-40.8 362,-92.8 589,-92.8 589,-40.8 362,-40.8"/>
</g>
<g id="clust2" class="cluster">
<title>cluster_TemplateSyntaxModule_declarations</title>
<polygon fill="none" stroke="black" points="16,-40.8 16,-92.8 354,-92.8 354,-40.8 16,-40.8"/>
</g>
<!-- SubComponent -->
<g id="node1" class="node">
<title>SubComponent</title>
<polygon fill="#ffffb3" stroke="black" points="345.62,-84.8 242.38,-84.8 242.38,-48.8 345.62,-48.8 345.62,-84.8"/>
<text text-anchor="middle" x="294" y="-62.6" font-family="Times,serif" font-size="14.00">SubComponent</text>
</g>
<!-- TemplateSyntaxModule -->
<g id="node3" class="node">
<title>TemplateSyntaxModule</title>
<polygon fill="#8dd3c7" stroke="black" points="433.81,-149.8 430.81,-153.8 409.81,-153.8 406.81,-149.8 282.19,-149.8 282.19,-113.8 433.81,-113.8 433.81,-149.8"/>
<text text-anchor="middle" x="358" y="-127.6" font-family="Times,serif" font-size="14.00">TemplateSyntaxModule</text>
</g>
<!-- SubComponent&#45;&gt;TemplateSyntaxModule -->
<g id="edge1" class="edge">
<title>SubComponent&#45;&gt;TemplateSyntaxModule</title>
<path fill="none" stroke="black" d="M313.95,-84.91C313.95,-84.91 313.95,-103.79 313.95,-103.79"/>
<polygon fill="black" stroke="black" points="310.45,-103.79 313.95,-113.79 317.45,-103.79 310.45,-103.79"/>
</g>
<!-- TemplateSyntaxPageComponent -->
<g id="node2" class="node">
<title>TemplateSyntaxPageComponent</title>
<polygon fill="#ffffb3" stroke="black" points="224.3,-84.8 23.7,-84.8 23.7,-48.8 224.3,-48.8 224.3,-84.8"/>
<text text-anchor="middle" x="124" y="-62.6" font-family="Times,serif" font-size="14.00">TemplateSyntaxPageComponent</text>
</g>
<!-- TemplateSyntaxPageComponent&#45;&gt;TemplateSyntaxModule -->
<g id="edge2" class="edge">
<title>TemplateSyntaxPageComponent&#45;&gt;TemplateSyntaxModule</title>
<path fill="none" stroke="black" d="M124,-84.91C124,-104.14 124,-131.8 124,-131.8 124,-131.8 272.03,-131.8 272.03,-131.8"/>
<polygon fill="black" stroke="black" points="272.03,-135.3 282.03,-131.8 272.03,-128.3 272.03,-135.3"/>
</g>
<!-- CoreModule -->
<g id="node4" class="node">
<title>CoreModule</title>
<polygon fill="#8dd3c7" stroke="black" points="581.26,-84.8 578.26,-88.8 557.26,-88.8 554.26,-84.8 494.74,-84.8 494.74,-48.8 581.26,-48.8 581.26,-84.8"/>
<text text-anchor="middle" x="538" y="-62.6" font-family="Times,serif" font-size="14.00">CoreModule</text>
</g>
<!-- CoreModule&#45;&gt;TemplateSyntaxModule -->
<g id="edge3" class="edge">
<title>CoreModule&#45;&gt;TemplateSyntaxModule</title>
<path fill="none" stroke="black" d="M538,-84.91C538,-104.14 538,-131.8 538,-131.8 538,-131.8 443.81,-131.8 443.81,-131.8"/>
<polygon fill="black" stroke="black" points="443.81,-128.3 433.81,-131.8 443.81,-135.3 443.81,-128.3"/>
</g>
<!-- MaterialModule -->
<g id="node5" class="node">
<title>MaterialModule</title>
<polygon fill="#8dd3c7" stroke="black" points="476.47,-84.8 473.47,-88.8 452.47,-88.8 449.47,-84.8 369.53,-84.8 369.53,-48.8 476.47,-48.8 476.47,-84.8"/>
<text text-anchor="middle" x="423" y="-62.6" font-family="Times,serif" font-size="14.00">MaterialModule</text>
</g>
<!-- MaterialModule&#45;&gt;TemplateSyntaxModule -->
<g id="edge4" class="edge">
<title>MaterialModule&#45;&gt;TemplateSyntaxModule</title>
<path fill="none" stroke="black" d="M401.58,-84.91C401.58,-84.91 401.58,-103.79 401.58,-103.79"/>
<polygon fill="black" stroke="black" points="398.08,-103.79 401.58,-113.79 405.08,-103.79 398.08,-103.79"/>
</g>
</g>
</svg>
