<?xml version="1.0" encoding="UTF-8" standalone="no"?>
<!DOCTYPE svg PUBLIC "-//W3C//DTD SVG 1.1//EN"
 "http://www.w3.org/Graphics/SVG/1.1/DTD/svg11.dtd">
<!-- Generated by graphviz version 2.47.3 (20210619.1520)
 -->
<!-- Title: dependencies Pages: 1 -->
<svg width="1093pt" height="174pt"
 viewBox="0.00 0.00 1093.00 173.80" xmlns="http://www.w3.org/2000/svg" xmlns:xlink="http://www.w3.org/1999/xlink">
<g id="graph0" class="graph" transform="scale(1 1) rotate(0) translate(4 169.8)">
<title>dependencies</title>
<polygon fill="white" stroke="transparent" points="-4,4 -4,-169.8 1089,-169.8 1089,4 -4,4"/>
<text text-anchor="middle" x="542.5" y="-8.2" font-family="sans-serif" font-size="14.00">dependencies</text>
<g id="clust1" class="cluster">
<title>cluster_CustomerModule</title>
<polygon fill="none" stroke="black" stroke-dasharray="1,5" points="8,-32.8 8,-157.8 1077,-157.8 1077,-32.8 8,-32.8"/>
</g>
<g id="clust7" class="cluster">
<title>cluster_CustomerModule_imports</title>
<polygon fill="none" stroke="black" points="769,-40.8 769,-92.8 1069,-92.8 1069,-40.8 769,-40.8"/>
</g>
<g id="clust2" class="cluster">
<title>cluster_CustomerModule_declarations</title>
<polygon fill="none" stroke="black" points="16,-40.8 16,-92.8 761,-92.8 761,-40.8 16,-40.8"/>
</g>
<!-- CustomerDashboardComponent -->
<g id="node1" class="node">
<title>CustomerDashboardComponent</title>
<polygon fill="#ffffb3" stroke="black" points="753.41,-84.8 556.59,-84.8 556.59,-48.8 753.41,-48.8 753.41,-84.8"/>
<text text-anchor="middle" x="655" y="-62.6" font-family="Times,serif" font-size="14.00">CustomerDashboardComponent</text>
</g>
<!-- CustomerModule -->
<g id="node5" class="node">
<title>CustomerModule</title>
<polygon fill="#8dd3c7" stroke="black" points="613.99,-149.8 610.99,-153.8 589.99,-153.8 586.99,-149.8 500.01,-149.8 500.01,-113.8 613.99,-113.8 613.99,-149.8"/>
<text text-anchor="middle" x="557" y="-127.6" font-family="Times,serif" font-size="14.00">CustomerModule</text>
</g>
<!-- CustomerDashboardComponent&#45;&gt;CustomerModule -->
<g id="edge1" class="edge">
<title>CustomerDashboardComponent&#45;&gt;CustomerModule</title>
<path fill="none" stroke="black" d="M585.39,-84.91C585.39,-84.91 585.39,-103.79 585.39,-103.79"/>
<polygon fill="black" stroke="black" points="581.89,-103.79 585.39,-113.79 588.89,-103.79 581.89,-103.79"/>
</g>
<!-- CustomerEditComponent -->
<g id="node2" class="node">
<title>CustomerEditComponent</title>
<polygon fill="#ffffb3" stroke="black" points="538.6,-84.8 379.4,-84.8 379.4,-48.8 538.6,-48.8 538.6,-84.8"/>
<text text-anchor="middle" x="459" y="-62.6" font-family="Times,serif" font-size="14.00">CustomerEditComponent</text>
</g>
<!-- CustomerEditComponent&#45;&gt;CustomerModule -->
<g id="edge2" class="edge">
<title>CustomerEditComponent&#45;&gt;CustomerModule</title>
<path fill="none" stroke="black" d="M519.28,-84.91C519.28,-84.91 519.28,-103.79 519.28,-103.79"/>
<polygon fill="black" stroke="black" points="515.78,-103.79 519.28,-113.79 522.78,-103.79 515.78,-103.79"/>
</g>
<!-- CustomerListComponent -->
<g id="node3" class="node">
<title>CustomerListComponent</title>
<polygon fill="#ffffb3" stroke="black" points="361.55,-84.8 204.45,-84.8 204.45,-48.8 361.55,-48.8 361.55,-84.8"/>
<text text-anchor="middle" x="283" y="-62.6" font-family="Times,serif" font-size="14.00">CustomerListComponent</text>
</g>
<!-- CustomerListComponent&#45;&gt;CustomerModule -->
<g id="edge3" class="edge">
<title>CustomerListComponent&#45;&gt;CustomerModule</title>
<path fill="none" stroke="black" d="M283,-84.82C283,-102.17 283,-125.8 283,-125.8 283,-125.8 489.89,-125.8 489.89,-125.8"/>
<polygon fill="black" stroke="black" points="489.89,-129.3 499.89,-125.8 489.89,-122.3 489.89,-129.3"/>
</g>
<!-- CustomerNewComponent -->
<g id="node4" class="node">
<title>CustomerNewComponent</title>
<polygon fill="#ffffb3" stroke="black" points="186.2,-84.8 23.8,-84.8 23.8,-48.8 186.2,-48.8 186.2,-84.8"/>
<text text-anchor="middle" x="105" y="-62.6" font-family="Times,serif" font-size="14.00">CustomerNewComponent</text>
</g>
<!-- CustomerNewComponent&#45;&gt;CustomerModule -->
<g id="edge4" class="edge">
<title>CustomerNewComponent&#45;&gt;CustomerModule</title>
<path fill="none" stroke="black" d="M105,-85.08C105,-106.12 105,-137.8 105,-137.8 105,-137.8 489.75,-137.8 489.75,-137.8"/>
<polygon fill="black" stroke="black" points="489.75,-141.3 499.75,-137.8 489.75,-134.3 489.75,-141.3"/>
</g>
<!-- CustomerRoutingModule -->
<g id="node6" class="node">
<title>CustomerRoutingModule</title>
<polygon fill="#8dd3c7" stroke="black" points="1060.61,-84.8 1057.61,-88.8 1036.61,-88.8 1033.61,-84.8 901.39,-84.8 901.39,-48.8 1060.61,-48.8 1060.61,-84.8"/>
<text text-anchor="middle" x="981" y="-62.6" font-family="Times,serif" font-size="14.00">CustomerRoutingModule</text>
</g>
<!-- CustomerRoutingModule&#45;&gt;CustomerModule -->
<g id="edge5" class="edge">
<title>CustomerRoutingModule&#45;&gt;CustomerModule</title>
<path fill="none" stroke="black" d="M981,-85.08C981,-106.12 981,-137.8 981,-137.8 981,-137.8 624.18,-137.8 624.18,-137.8"/>
<polygon fill="black" stroke="black" points="624.18,-134.3 614.18,-137.8 624.18,-141.3 624.18,-134.3"/>
</g>
<!-- MaterialModule -->
<g id="node7" class="node">
<title>MaterialModule</title>
<polygon fill="#8dd3c7" stroke="black" points="883.47,-84.8 880.47,-88.8 859.47,-88.8 856.47,-84.8 776.53,-84.8 776.53,-48.8 883.47,-48.8 883.47,-84.8"/>
<text text-anchor="middle" x="830" y="-62.6" font-family="Times,serif" font-size="14.00">MaterialModule</text>
</g>
<!-- MaterialModule&#45;&gt;CustomerModule -->
<g id="edge6" class="edge">
<title>MaterialModule&#45;&gt;CustomerModule</title>
<path fill="none" stroke="black" d="M830,-84.82C830,-102.17 830,-125.8 830,-125.8 830,-125.8 624.23,-125.8 624.23,-125.8"/>
<polygon fill="black" stroke="black" points="624.23,-122.3 614.23,-125.8 624.23,-129.3 624.23,-122.3"/>
</g>
</g>
</svg>
