<?xml version="1.0" encoding="UTF-8" standalone="no"?>
<!DOCTYPE svg PUBLIC "-//W3C//DTD SVG 1.1//EN"
 "http://www.w3.org/Graphics/SVG/1.1/DTD/svg11.dtd">
<!-- Generated by graphviz version 2.47.3 (20210619.1520)
 -->
<!-- Title: dependencies Pages: 1 -->
<svg width="266pt" height="247pt"
 viewBox="0.00 0.00 266.00 246.80" xmlns="http://www.w3.org/2000/svg" xmlns:xlink="http://www.w3.org/1999/xlink">
<g id="graph0" class="graph" transform="scale(1 1) rotate(0) translate(4 242.8)">
<title>dependencies</title>
<polygon fill="white" stroke="transparent" points="-4,4 -4,-242.8 262,-242.8 262,4 -4,4"/>
<text text-anchor="middle" x="129" y="-8.2" font-family="sans-serif" font-size="14.00">dependencies</text>
<g id="clust1" class="cluster">
<title>cluster_CoreModule</title>
<polygon fill="none" stroke="black" stroke-dasharray="1,5" points="8,-32.8 8,-230.8 250,-230.8 250,-32.8 8,-32.8"/>
</g>
<g id="clust2" class="cluster">
<title>cluster_CoreModule_declarations</title>
<polygon fill="none" stroke="black" points="20,-40.8 20,-92.8 238,-92.8 238,-40.8 20,-40.8"/>
</g>
<g id="clust6" class="cluster">
<title>cluster_CoreModule_exports</title>
<polygon fill="none" stroke="black" points="16,-170.8 16,-222.8 242,-222.8 242,-170.8 16,-170.8"/>
</g>
<!-- HighlightDirective -->
<g id="node1" class="node">
<title>HighlightDirective</title>
<polygon fill="#ffffb3" stroke="black" points="229.75,-84.8 108.25,-84.8 108.25,-48.8 229.75,-48.8 229.75,-84.8"/>
<text text-anchor="middle" x="169" y="-62.6" font-family="Times,serif" font-size="14.00">HighlightDirective</text>
</g>
<!-- CoreModule -->
<g id="node3" class="node">
<title>CoreModule</title>
<polygon fill="#8dd3c7" stroke="black" points="155.26,-149.8 152.26,-153.8 131.26,-153.8 128.26,-149.8 68.74,-149.8 68.74,-113.8 155.26,-113.8 155.26,-149.8"/>
<text text-anchor="middle" x="112" y="-127.6" font-family="Times,serif" font-size="14.00">CoreModule</text>
</g>
<!-- HighlightDirective&#45;&gt;CoreModule -->
<g id="edge1" class="edge">
<title>HighlightDirective&#45;&gt;CoreModule</title>
<path fill="none" stroke="black" d="M131.75,-84.91C131.75,-84.91 131.75,-103.79 131.75,-103.79"/>
<polygon fill="black" stroke="black" points="128.25,-103.79 131.75,-113.79 135.25,-103.79 128.25,-103.79"/>
</g>
<!-- TaxPipe -->
<g id="node2" class="node">
<title>TaxPipe</title>
<polygon fill="#ffffb3" stroke="black" points="90.16,-84.8 27.84,-84.8 27.84,-48.8 90.16,-48.8 90.16,-84.8"/>
<text text-anchor="middle" x="59" y="-62.6" font-family="Times,serif" font-size="14.00">TaxPipe</text>
</g>
<!-- TaxPipe&#45;&gt;CoreModule -->
<g id="edge2" class="edge">
<title>TaxPipe&#45;&gt;CoreModule</title>
<path fill="none" stroke="black" d="M79.47,-84.91C79.47,-84.91 79.47,-103.79 79.47,-103.79"/>
<polygon fill="black" stroke="black" points="75.97,-103.79 79.47,-113.79 82.97,-103.79 75.97,-103.79"/>
</g>
<!-- HighlightDirective  -->
<g id="node4" class="node">
<title>HighlightDirective </title>
<polygon fill="#fb8072" stroke="black" points="233.75,-214.8 108.25,-214.8 108.25,-178.8 233.75,-178.8 233.75,-214.8"/>
<text text-anchor="middle" x="171" y="-192.6" font-family="Times,serif" font-size="14.00">HighlightDirective </text>
</g>
<!-- CoreModule&#45;&gt;HighlightDirective  -->
<g id="edge3" class="edge">
<title>CoreModule&#45;&gt;HighlightDirective </title>
<path fill="none" stroke="black" stroke-dasharray="5,2" d="M131.88,-149.91C131.88,-149.91 131.88,-168.79 131.88,-168.79"/>
<polygon fill="black" stroke="black" points="128.38,-168.79 131.88,-178.79 135.38,-168.79 128.38,-168.79"/>
</g>
<!-- TaxPipe  -->
<g id="node5" class="node">
<title>TaxPipe </title>
<polygon fill="#fb8072" stroke="black" points="90.16,-214.8 23.84,-214.8 23.84,-178.8 90.16,-178.8 90.16,-214.8"/>
<text text-anchor="middle" x="57" y="-192.6" font-family="Times,serif" font-size="14.00">TaxPipe </text>
</g>
<!-- CoreModule&#45;&gt;TaxPipe  -->
<g id="edge4" class="edge">
<title>CoreModule&#45;&gt;TaxPipe </title>
<path fill="none" stroke="black" stroke-dasharray="5,2" d="M79.35,-149.91C79.35,-149.91 79.35,-168.79 79.35,-168.79"/>
<polygon fill="black" stroke="black" points="75.85,-168.79 79.35,-178.79 82.85,-168.79 75.85,-168.79"/>
</g>
</g>
</svg>
